<svg width="131" height="169" viewBox="0 0 131 169" fill="none" xmlns="http://www.w3.org/2000/svg">
<path d="M63.9984 39.3636V39.142C64.023 36.7907 64.2692 34.9195 64.737 33.5284C65.2048 32.1373 65.8696 31.0109 66.7314 30.1491C67.5931 29.2874 68.6272 28.4934 69.8336 27.767C70.56 27.3239 71.2124 26.8007 71.791 26.1974C72.3696 25.5819 72.8251 24.8741 73.1575 24.0739C73.5022 23.2737 73.6745 22.3873 73.6745 21.4148C73.6745 20.2083 73.3914 19.1619 72.8251 18.2756C72.2588 17.3892 71.5017 16.706 70.5538 16.2259C69.6059 15.7457 68.5533 15.5057 67.3961 15.5057C66.3867 15.5057 65.4141 15.715 64.4785 16.1335C63.5429 16.5521 62.7612 17.2107 62.1333 18.1094C61.5055 19.008 61.1423 20.1837 61.0439 21.6364H56.3904C56.4889 19.5436 57.0306 17.7524 58.0154 16.2628C59.0126 14.7732 60.3237 13.6345 61.9487 12.8466C63.586 12.0587 65.4018 11.6648 67.3961 11.6648C69.5628 11.6648 71.4463 12.0956 73.0467 12.9574C74.6594 13.8191 75.9028 15.0009 76.7768 16.5028C77.6632 18.0047 78.1064 19.7159 78.1064 21.6364C78.1064 22.9905 77.8971 24.2154 77.4785 25.3111C77.0723 26.4067 76.4814 27.3854 75.7058 28.2472C74.9425 29.1089 74.0192 29.8722 72.9359 30.5369C71.8526 31.214 70.9847 31.928 70.3322 32.679C69.6797 33.4176 69.2058 34.2978 68.9103 35.3196C68.6149 36.3414 68.4548 37.6155 68.4302 39.142V39.3636H63.9984ZM66.362 50.2955C65.4511 50.2955 64.6693 49.9692 64.0169 49.3168C63.3644 48.6643 63.0382 47.8826 63.0382 46.9716C63.0382 46.0606 63.3644 45.2789 64.0169 44.6264C64.6693 43.974 65.4511 43.6477 66.362 43.6477C67.273 43.6477 68.0547 43.974 68.7072 44.6264C69.3597 45.2789 69.6859 46.0606 69.6859 46.9716C69.6859 47.5748 69.532 48.1288 69.2243 48.6335C68.9288 49.1383 68.5287 49.5445 68.024 49.8523C67.5315 50.1477 66.9776 50.2955 66.362 50.2955Z" fill="black"/>
<path d="M108.886 67.9717L108.943 67.8202C109.567 66.219 110.218 65.0033 110.897 64.173C111.576 63.3427 112.321 62.7442 113.133 62.3775C113.944 62.0107 114.856 61.7348 115.868 61.5496C116.479 61.4341 117.06 61.2448 117.612 60.9818C118.166 60.7103 118.66 60.3439 119.094 59.8826C119.536 59.4246 119.883 58.8631 120.134 58.1982C120.445 57.3734 120.522 56.5849 120.363 55.8327C120.205 55.0806 119.864 54.4181 119.34 53.8452C118.816 53.2723 118.158 52.8365 117.367 52.5378C116.677 52.2772 115.958 52.1693 115.21 52.2139C114.462 52.2586 113.758 52.5071 113.097 52.9595C112.436 53.4118 111.884 54.1218 111.442 55.0895L108.26 53.8884C108.868 52.4831 109.7 51.3983 110.758 50.6341C111.824 49.8731 113.015 49.433 114.329 49.3138C115.652 49.1978 116.995 49.3971 118.358 49.9119C119.839 50.4711 121.016 51.2518 121.888 52.2541C122.768 53.2595 123.313 54.3884 123.523 55.6408C123.741 56.8963 123.602 58.1806 123.107 59.4936C122.757 60.4194 122.298 61.2028 121.729 61.8438C121.168 62.488 120.512 63.0046 119.759 63.3935C119.015 63.7857 118.187 64.0692 117.274 64.244C116.359 64.4273 115.581 64.6915 114.941 65.0364C114.305 65.373 113.754 65.8525 113.288 66.4748C112.822 67.0971 112.384 67.9268 111.973 68.9641L111.916 69.1156L108.886 67.9717ZM107.68 76.0555C107.057 75.8204 106.607 75.3956 106.329 74.7811C106.052 74.1666 106.031 73.548 106.266 72.9252C106.501 72.3024 106.926 71.8521 107.54 71.5745C108.155 71.2968 108.773 71.2755 109.396 71.5107C110.019 71.7458 110.469 72.1706 110.747 72.7851C111.024 73.3996 111.046 74.0182 110.81 74.641C110.655 75.0534 110.407 75.3924 110.066 75.6581C109.734 75.9269 109.355 76.1014 108.931 76.1815C108.518 76.2564 108.101 76.2144 107.68 76.0555Z" fill="black"/>
<path d="M18.8324 65.6673L18.771 65.4856C18.1405 63.5508 17.8246 61.9484 17.8232 60.6783C17.8218 59.4083 18.0551 58.3007 18.5232 57.3556C18.9913 56.4106 19.6195 55.4733 20.4077 54.5439C20.8806 53.9795 21.2708 53.37 21.5783 52.7153C21.8823 52.0504 22.0599 51.344 22.111 50.5959C22.1722 49.8444 22.0682 49.0699 21.7991 48.2725C21.4652 47.2833 20.9435 46.5037 20.2339 45.9336C19.5243 45.3635 18.7144 45.0128 17.8043 44.8815C16.8942 44.7502 15.9647 44.8446 15.0159 45.1649C14.1882 45.4442 13.4487 45.885 12.7974 46.4871C12.146 47.0892 11.6873 47.8455 11.4212 48.7562C11.1551 49.6668 11.1827 50.7312 11.504 51.9496L7.68845 53.2374C7.19004 51.4941 7.13849 49.8756 7.53378 48.3816C7.93917 46.8843 8.69905 45.5878 9.81342 44.4921C10.9379 43.3929 12.3177 42.5674 13.953 42.0155C15.7295 41.4159 17.3931 41.248 18.9438 41.5117C20.5046 41.772 21.8512 42.3969 22.9835 43.3865C24.1259 44.3727 24.9628 45.6531 25.4943 47.2277C25.869 48.3381 26.0364 49.4003 25.9964 50.4145C25.9665 51.4253 25.7528 52.3913 25.3554 53.3125C24.968 54.2303 24.4222 55.1117 23.7179 55.9566C23.017 56.8115 22.503 57.6372 22.1758 58.4335C21.8452 59.2197 21.7002 60.0725 21.7407 60.9921C21.7812 61.9117 22.0026 63.0007 22.4049 64.2592L22.4662 64.4408L18.8324 65.6673ZM23.7957 73.9767C23.0487 74.2288 22.3175 74.1776 21.6019 73.8232C20.8864 73.4688 20.4025 72.9181 20.1504 72.1711C19.8983 71.4242 19.9495 70.6929 20.3039 69.9774C20.6583 69.2618 21.209 68.778 21.956 68.5259C22.7029 68.2738 23.4342 68.325 24.1497 68.6794C24.8653 69.0338 25.3491 69.5845 25.6012 70.3314C25.7681 70.826 25.7953 71.3229 25.6826 71.8219C25.58 72.3175 25.3644 72.7613 25.0357 73.1534C24.7137 73.5319 24.3004 73.8063 23.7957 73.9767Z" fill="black"/>
<g clip-path="url(#clip0_11_1034)">
<path d="M95.9583 80.625H37.0417C32.4125 80.625 28.625 84.4125 28.625 89.0417V118.5C28.625 123.129 32.4125 126.917 37.0417 126.917H95.9583C100.588 126.917 104.375 123.129 104.375 118.5V89.0417C104.375 84.4125 100.588 80.625 95.9583 80.625ZM95.9583 105.875H79.125C79.125 112.693 73.3175 118.5 66.5 118.5C59.6825 118.5 53.875 112.693 53.875 105.875H37.0417V89.0417H95.9583V105.875ZM79.125 135.333H104.375V147.958C104.375 152.588 100.588 156.375 95.9583 156.375H37.0417C32.4125 156.375 28.625 152.588 28.625 147.958V135.333H53.875C53.875 142.319 59.5142 147.958 66.5 147.958C73.4858 147.958 79.125 142.319 79.125 135.333Z" fill="black"/>
</g>
<defs>
<clipPath id="clip0_11_1034">
<rect width="101" height="101" fill="white" transform="translate(16 68)"/>
</clipPath>
</defs>
</svg>
