<svg width="48" height="48" viewBox="0 0 48 48" fill="none" xmlns="http://www.w3.org/2000/svg">
<path d="M32.8076 1.38596e-07C30.3168 -0.000334576 27.8634 0.605595 25.6604 1.76522C23.4574 2.92485 21.5713 4.60316 20.1658 6.65455L20.2095 6.58909C19.3346 6.54545 18.416 6.54545 17.4974 6.54545C7.83009 6.54545 0 7.63636 0 15.2727V37.0909C0 39.0109 0.852999 40.7345 2.18718 41.9345V45.8182C2.18718 46.3968 2.41761 46.9518 2.82779 47.361C3.23796 47.7701 3.79428 48 4.37435 48H6.56153C7.1416 48 7.69792 47.7701 8.1081 47.361C8.51827 46.9518 8.74871 46.3968 8.74871 45.8182V43.6364H26.2461V45.8182C26.2461 46.3968 26.4766 46.9518 26.8867 47.361C27.2969 47.7701 27.8532 48 28.4333 48H30.6205C31.2005 48 31.7569 47.7701 32.167 47.361C32.5772 46.9518 32.8076 46.3968 32.8076 45.8182V41.9345C34.1418 40.7345 34.9948 39.0109 34.9948 37.0909V30.3709C38.8012 29.7926 42.2494 27.8049 44.6524 24.8039C47.0553 21.8029 48.2365 18.0089 47.9606 14.1779C47.6847 10.347 45.972 6.76033 43.1637 4.13276C40.3554 1.50518 36.6578 0.0295802 32.8076 1.38596e-07ZM7.65512 39.2727C6.785 39.2727 5.95053 38.9279 5.33527 38.3142C4.72 37.7004 4.37435 36.868 4.37435 36C4.37435 35.132 4.72 34.2996 5.33527 33.6858C5.95053 33.0721 6.785 32.7273 7.65512 32.7273C8.52523 32.7273 9.35971 33.0721 9.97497 33.6858C10.5902 34.2996 10.9359 35.132 10.9359 36C10.9359 36.868 10.5902 37.7004 9.97497 38.3142C9.35971 38.9279 8.52523 39.2727 7.65512 39.2727ZM4.37435 26.1818V15.2727H17.4974C17.4974 19.5491 19.269 23.4109 22.1124 26.1818H4.37435ZM27.3397 39.2727C26.4696 39.2727 25.6351 38.9279 25.0199 38.3142C24.4046 37.7004 24.0589 36.868 24.0589 36C24.0589 35.132 24.4046 34.2996 25.0199 33.6858C25.6351 33.0721 26.4696 32.7273 27.3397 32.7273C28.2098 32.7273 29.0443 33.0721 29.6596 33.6858C30.2748 34.2996 30.6205 35.132 30.6205 36C30.6205 36.868 30.2748 37.7004 29.6596 38.3142C29.0443 38.9279 28.2098 39.2727 27.3397 39.2727ZM32.8076 26.1818C29.9073 26.1818 27.1257 25.0325 25.0748 22.9866C23.0239 20.9408 21.8718 18.166 21.8718 15.2727C21.8718 12.3795 23.0239 9.60469 25.0748 7.55884C27.1257 5.51298 29.9073 4.36364 32.8076 4.36364C35.708 4.36364 38.4896 5.51298 40.5405 7.55884C42.5914 9.60469 43.7435 12.3795 43.7435 15.2727C43.7435 18.166 42.5914 20.9408 40.5405 22.9866C38.4896 25.0325 35.708 26.1818 32.8076 26.1818ZM30.6205 6.54545H34.9948V17.4545H30.6205V6.54545ZM30.6205 19.6364H34.9948V24H30.6205V19.6364Z" fill="white"/>
</svg>
