<svg width="48" height="41" viewBox="0 0 48 41" fill="none" xmlns="http://www.w3.org/2000/svg">
<path d="M27.4286 0C16.0686 0 6.85714 9.17944 6.85714 20.5H0L8.89143 29.3606L9.05143 29.6794L18.2857 20.5H11.4286C11.4286 11.685 18.5829 4.55556 27.4286 4.55556C36.2743 4.55556 43.4286 11.685 43.4286 20.5C43.4286 29.315 36.2743 36.4444 27.4286 36.4444C23.0171 36.4444 19.0171 34.645 16.1371 31.7522L12.8914 34.9867C16.6171 38.6994 21.7371 41 27.4286 41C38.7886 41 48 31.8206 48 20.5C48 9.17944 38.7886 0 27.4286 0ZM25.1429 11.3889V22.7778L34.9257 28.5633L36.5714 25.8072L28.5714 21.0694V11.3889H25.1429Z" fill="white"/>
</svg>
