<svg width="66" height="66" viewBox="0 0 66 66" fill="none" xmlns="http://www.w3.org/2000/svg">
<path d="M46.75 33C39.16 33 33 39.16 33 46.75C33 54.34 39.16 60.5 46.75 60.5C54.34 60.5 60.5 54.34 60.5 46.75C60.5 39.16 54.34 33 46.75 33ZM51.2875 53.2125L45.375 47.3V38.5H48.125V46.1725L53.2125 51.26L51.2875 53.2125ZM49.5 8.25H40.755C39.6 5.06 36.575 2.75 33 2.75C29.425 2.75 26.4 5.06 25.245 8.25H16.5C13.475 8.25 11 10.725 11 13.75V55C11 58.025 13.475 60.5 16.5 60.5H33.3025C31.68 58.9325 30.36 57.0625 29.3975 55H16.5V13.75H22V22H44V13.75H49.5V27.72C51.4525 27.995 53.295 28.5725 55 29.37V13.75C55 10.725 52.525 8.25 49.5 8.25ZM33 13.75C31.4875 13.75 30.25 12.5125 30.25 11C30.25 9.4875 31.4875 8.25 33 8.25C34.5125 8.25 35.75 9.4875 35.75 11C35.75 12.5125 34.5125 13.75 33 13.75Z" fill="black"/>
</svg>
